<mxfile host="app.diagrams.net" agent="Mozilla/5.0 (Windows NT 10.0; Win64; x64) AppleWebKit/537.36 (KHTML, like Gecko) Chrome/133.0.0.0 Safari/537.36" version="26.0.7">
  <diagram name="Page-1" id="xyWeLhzmKsWv2L20k_pU">
    <mxGraphModel dx="1105" dy="627" grid="1" gridSize="10" guides="1" tooltips="1" connect="1" arrows="1" fold="1" page="1" pageScale="1" pageWidth="850" pageHeight="1100" math="0" shadow="0">
      <root>
        <mxCell id="0" />
        <mxCell id="1" parent="0" />
        <mxCell id="mljChudHksafsY_qVqmY-1" value="User" style="shape=umlActor;verticalLabelPosition=bottom;verticalAlign=top;html=1;outlineConnect=0;" vertex="1" parent="1">
          <mxGeometry x="40" y="240" width="30" height="60" as="geometry" />
        </mxCell>
        <mxCell id="mljChudHksafsY_qVqmY-3" value="" style="shape=image;verticalLabelPosition=bottom;labelBackgroundColor=default;verticalAlign=top;aspect=fixed;imageAspect=0;image=https://upload.wikimedia.org/wikipedia/commons/thumb/e/e9/Jenkins_logo.svg/1483px-Jenkins_logo.svg.png;" vertex="1" parent="1">
          <mxGeometry x="240" y="240" width="65.89" height="90.99" as="geometry" />
        </mxCell>
        <mxCell id="mljChudHksafsY_qVqmY-4" value="" style="endArrow=classic;html=1;rounded=0;entryX=0.055;entryY=0.426;entryDx=0;entryDy=0;entryPerimeter=0;" edge="1" parent="1" target="mljChudHksafsY_qVqmY-3">
          <mxGeometry width="50" height="50" relative="1" as="geometry">
            <mxPoint x="80" y="280" as="sourcePoint" />
            <mxPoint x="410" y="470" as="targetPoint" />
          </mxGeometry>
        </mxCell>
        <mxCell id="mljChudHksafsY_qVqmY-5" value="Jenkins" style="text;html=1;align=center;verticalAlign=middle;resizable=0;points=[];autosize=1;strokeColor=none;fillColor=none;" vertex="1" parent="1">
          <mxGeometry x="250" y="330.99" width="60" height="30" as="geometry" />
        </mxCell>
        <mxCell id="mljChudHksafsY_qVqmY-6" value="" style="shape=image;verticalLabelPosition=bottom;labelBackgroundColor=default;verticalAlign=top;aspect=fixed;imageAspect=0;image=https://images.g2crowd.com/uploads/product/image/social_landscape/social_landscape_8ec3c17e3fb1df25b6a8bd7cc69cf2d1/github.png;" vertex="1" parent="1">
          <mxGeometry x="425" y="280" width="110" height="57.75" as="geometry" />
        </mxCell>
        <mxCell id="mljChudHksafsY_qVqmY-8" value="" style="shape=image;verticalLabelPosition=bottom;labelBackgroundColor=default;verticalAlign=top;aspect=fixed;imageAspect=0;image=https://www.aviator.co/blog/wp-content/uploads/2023/01/terraform.png;" vertex="1" parent="1">
          <mxGeometry x="400" y="230" width="79.97" height="60" as="geometry" />
        </mxCell>
        <mxCell id="mljChudHksafsY_qVqmY-9" value="" style="shape=flexArrow;endArrow=classic;html=1;rounded=0;entryX=0;entryY=0.25;entryDx=0;entryDy=0;" edge="1" parent="1" target="mljChudHksafsY_qVqmY-6">
          <mxGeometry width="50" height="50" relative="1" as="geometry">
            <mxPoint x="320" y="294" as="sourcePoint" />
            <mxPoint x="480" y="270" as="targetPoint" />
          </mxGeometry>
        </mxCell>
        <mxCell id="mljChudHksafsY_qVqmY-12" value="" style="shape=image;verticalLabelPosition=bottom;labelBackgroundColor=default;verticalAlign=top;aspect=fixed;imageAspect=0;image=https://miro.medium.com/v2/resize:fit:625/1*2STZmGfuaBZEACgUTTJzeg.png;" vertex="1" parent="1">
          <mxGeometry x="630" y="240" width="130" height="77.74" as="geometry" />
        </mxCell>
        <mxCell id="mljChudHksafsY_qVqmY-13" value="" style="shape=flexArrow;endArrow=classic;html=1;rounded=0;exitX=1;exitY=0.25;exitDx=0;exitDy=0;" edge="1" parent="1" source="mljChudHksafsY_qVqmY-6">
          <mxGeometry width="50" height="50" relative="1" as="geometry">
            <mxPoint x="290" y="320" as="sourcePoint" />
            <mxPoint x="620" y="294" as="targetPoint" />
          </mxGeometry>
        </mxCell>
        <mxCell id="mljChudHksafsY_qVqmY-18" value="AWS S3" style="shape=image;verticalLabelPosition=bottom;labelBackgroundColor=default;verticalAlign=top;aspect=fixed;imageAspect=0;image=https://everythingdevops.dev/content/images/2023/08/Amazon-S3-Logo.svg.png;" vertex="1" parent="1">
          <mxGeometry x="430" y="391.88" width="76.5" height="91.53" as="geometry" />
        </mxCell>
        <mxCell id="mljChudHksafsY_qVqmY-20" value="AWS Cloud" style="text;html=1;align=center;verticalAlign=middle;resizable=0;points=[];autosize=1;strokeColor=none;fillColor=none;" vertex="1" parent="1">
          <mxGeometry x="635" y="318" width="90" height="30" as="geometry" />
        </mxCell>
        <mxCell id="mljChudHksafsY_qVqmY-21" value="" style="shape=flexArrow;endArrow=classic;html=1;rounded=0;" edge="1" parent="1">
          <mxGeometry width="50" height="50" relative="1" as="geometry">
            <mxPoint x="480" y="350" as="sourcePoint" />
            <mxPoint x="480" y="390" as="targetPoint" />
          </mxGeometry>
        </mxCell>
        <mxCell id="mljChudHksafsY_qVqmY-22" value="" style="shape=image;verticalLabelPosition=bottom;labelBackgroundColor=default;verticalAlign=top;aspect=fixed;imageAspect=0;image=data:image/png,iVBORw0KGgoAAAANSUhEUgAAATUAAACjCAMAAADciXncAAABI1BMVEX///8kW6lDgMUaR4UVNl3//v////0kXKgVNlwjXKsZR4ckWqsWNV0VNVv8//8aR4ahus4eT5IeTIoUM14dRnsRNmUYUpw5d78lWJzJ198WPXAAAAAZGRYqKirLy8nU1NTk5ORra2vw8PAgIB29vb11dXR9fX2JiYkyMjBeXl1ISEaxsbF8jJtBQT9YWFgPDwuenp45OTecr8kALFZEgcKcnJy1tbXd3duGhoUfRngvRl0lXaMqV4dlZWVGRkaSkpCzx9bh7/U3balKeKcpTHYBO3SeqsGMpLcAOHo3eMYPPmpJdKRAZ5LR4ephhKxVbYRtkbKzvsoxZJ4kPVdUZoK+xdGXq7cAFTcAR5I5aqZneIuRmaPK3+01UG8AIUaAm7lZcI+q9uE1AAAQCklEQVR4nO1dCXvaxhYdDBIYSyIY8IIlEJLZg4AXDDiYYJz4tSHN5nRLm6T9/7/i3XtHwjLIaePnmq/fzEmCLQkNzNHdZwljEhISEhISEhISEhISEhISEhISEhISEhISEhISEhISEhISEhISEhISEhIS/06om/4CEv96qCr+Uw2Dfihwxnj/KBLnBr05uAnfrooogsgSZ40ZhkossPmjRXxvL7u3huzF8/M5Uw2F3qcw+qkKy5qioMwQE2z+nxeX8WwymYxtryA52d8aIG9cMg0uZSLSBt1HoYG/1H1j/t8Xl+lf09nJ9k5yFdux/cHW1uDN+dwg0USOQZuZeLShyCiKgj8AyFk+nk6nsyBpsRXs7ABrQNvWxZtHBt7JyK0agkobI5NmEGeZeD6eiaOGxrZ3VhHbB85Q3HzeuDcQUdjQoinU+e9Ov0/H4yhp8fzuZE0/gcfYyy0fg4vnyJsiKmuoadDr+XeLy3gGCUNRi2dBI9dkLZbc31piMHj1yDDIwAF5m+7EAwP8AAQS7Pz0ErhC2oA4YC67s+4MkkvWyLrB6/ND9KOGOFmDGvpFZYepywyKGCooveyhaK0hLGvE2w+vmWKo3DGIgIA1itfmT3P5eIB0GiQuO0muRmvbQOMKa1sHryAIEdGsAYyneog10tRslDfY5qxx/UTsb++9MVRFPNYgK2Bvn+iFfCbMGsZrEVjV0Jfbyew7DPc23YsN4PGXVKIQD7OWTu/F/o5d2wKJ3PsOTJsodo2g4N+fv6T01E3WUNYg7VzHioZuYd6VPRfOsCnsvZ5IpbRC2BtA6JHP70bhahCiDJCEACV28EmYyIPDYIcfNE3XQqyBzOWLhYQOVK4jsTj7eDFYYS0G8YdIUNj8qa4ntESugDk7KellIZHQ8Nw6tERK13KF06uLQOKSEI4kd/aezzfdkwcCBqdg1h4/SaUSKaAiT9lUsQDyhDKVALVdQ0LjAqjri7MLztokieHw3n+YGP5gyRrJELCWLy5WmIpQUGAO+fSJG2xBkpUEbwusiQFkjSFrXBW1gpYgUkKMrctaIIHAWgqUdXF6kMR0FWVNjJDtWkOJClC+RA4AfOCxroM0RXgDHc4Su/gKVq6wm9xGLRVJ1gLWEtxocfZyuUKhWNw9iMTHq7MFCho5CzKBpweQoQqloSFZ83UzkVsUi/k81nJXqmvb+Aei3MHg4urstADM6ZzvQjYmll1bsqaT3ICMQXSbpzJbVB4K2UJQyx1cnL1YkA6nUrn4RDzWyI6BEy3meYyb4ZUi4CiGzIXYS67Uci9A5nIYjFymRWGNhvQYa799qmPPIcr1y5JpjHaBtfUxqoiq5EEcdfXpjz9tujcPBRwHxsHg13ohB6zxGm5QlkS79jcqRZAbHOQLH+YClYpUhsN5xqFGshaqeXwDa5PYZJJdiJJPIWjAwPj5s46RRKjm8U2yBqzt7L16JEY+xYKBg8e/oDdIaHdjbR8zqp3Ywa/ieAPiDfPQ1J1Zw0qRn70LAj60hHkoZQT5u9k1CH95HioIMPBQAllLaXfzoZNJMjkB0yYca6lbWIsYbInQ0GRsJ7YjTh7K51D5sgbxfZ4mK1CIG8/wkb3bRlvC3gCSU8ghBGINJ0gus3ct7wdsvnnbBd1bG0ie4FxJLH4vx1wmMcwhxKkU8dm17PEXPZfD8kUxhALWiiJxenr64ozjCvDx4AAt254wsqaoNAHr/W+/aZhKJnIaHzHQNF4EAVunrwALQ3pQrISfvIpZKJ6+eSdOHkrTzgw213O8wOaPSuFQy23jBlSFw/JlMGiVwrLvB/IrYgAnE+GcPRsFK3J0YG1kL3QdS5IpYhg4NMQZe0dvYKiOc/hBRxFK+KNQvLbNxxIiWEsEo34kaqSuemo+FycPRVljvz/9rBMHaKK0HHGT4CaORl9uQNP9ERc9wRmGTKxYzJ/+cPZ+0715OKhUy8U6EdU88peXl1gB594yH40rwscLjoEfnAgTeeBcPQNzAw2dgR6uStJs5mTUlKLJ2pwiKpDvCMUaZVTchRbulr37ZB6IwhoLWEtpd6+vAWuYUgmUUSkUr0EeCqxpd2aNFiWIUynCIQOF7FpBI1m7o4bSaZFYY8RaooCz0u5u17aFkjXMgRT2+y8UgyXuOkaF87B2DtKPNt2dBwKyhoHu4W8U32t3Yw3tWnL33SdhcgNaRYvLzmhyVVjWMrTSMYq1yWpVEtcn51NzYfJQvnBbNeaHH1KYGUGUm7lmLpOdrK3fxiXcS9Z4pPsyOdkt5lKvHUOMogcyhg7hd5zNjO7gNJ4OSuAZvrZle5U3f1WtX8l9ietrd4sJXctpn0XJQ1WF+9Av6Av0VILPW+ODB3Fcwf1Xa1twHtsCZ4WntHxWHB/qx2tUiKSKI3jSoj99Lb0HkrVm2a5HWy6uXmBZF+tsWmFXnPlruAaZj7YAXVQmounLwGERZ7JlJ8n1MSrcY4GLGM5mTlG1PFc8EGkUmQ++Q/bul7yXs75xHn0hekHQ7tnpIqehjCX8wYNCBpcoi8OaQpvrQEbFyeJF2oRGhaOEtlaR9MuSOlyimiUd5oq7SbHGQ4P6Gh8G0GhVS1DZTvF/kdCoRoLF78WLK9BOrMOJwxrD9B1ZI+3EWm4RmKOFK8Gs8Mh1VFgmh5fF2RUEILgcUqQ8lLZzgjz0i0buYJHPpOP+OqrbSPPnNoBqcspwxgKWv3eSWVHyUBxDxhmmb9GJ5nKJPK+A47hBIVgwFcEaxLSnZ6+uZyzgstrtvXei5KE08o5p6NMnKfQHNG6QoT9I3G04xXW1wbjBYGuCtdyDV+JMzFX4Xjns9YdcwFqQU+HsmOgVQRc3lyJvJXdiydiVOKQt96ljP+lA2iKe9kmjBQdp3N1pNcyNnDm/ndz9JNC6d+op0fb+Sy6VIM7iyw1kIA9dG9qLre+CAuey50ygDT3IGfhDyV+0lT0WMrj67Ou7O/neANynv9RUBBjEmspwwzr29snClzGcKQkvGVxHFTlX8oZde7md/YM28BSiuhaAaynw92MhKH7z/dcy2YhKbmxnhbXBPsQcqpBb/RHmn4vchYKo0choltuxVeAM063r2GP/zZzxOp1woDH4139e+ltTpElFd79eleSsXbyb0/ZrIrLmb156+Oclt2okcX9dy9169e41hcpCbpAY7DKMvBXjPMbNx/eSsTUNheRpfxnlXrz7FGxKLKBdo42s/S2WjXPQU/II8b1YcrLOWhCvDZCz0CbYQrLGFc3AsOv8zyff0ygyruBeo83fE+vVH5/8Rbl0kyLGsN46eNnI19MCrnvHKDfSriFnBhozZbkNtmBbYjEac8FOK0gC7X5L9u0yu76tJI0iD9AHqL5G4x10t3gqGgHgLZ+NKnnsBn5TYhW4TaRxGA3iTBGlBvktMFBTbyGGaiSStQjw/+1AjXCMCoeoLvOrUHm2gGlSQBNBWR5Ju/YtMAwj+E8NJFag+DHILWCStSgE5KxzI1m7HcQNJQoR7JCNuxNr69nqhvPXe/dpQS3jfhv9yxMPC7Vimfa9tlgyGxag0Rze0xMpu7xBr00Njiw6tDp1537avwNs+A69e22x5HYqAM9yp/fTrbIVNNi0GbLWx8Nmw322Mdp6btXy7lVNS2YVPalTnrqV/68lX83LbgXrA86o4jZBNUeWh0UTx566s3v4unf6Yk1r1HFHy2M/LA1V828p7N84feMAWOO/OJ57HHXnV9twQid844Ws8WtTt81UZI1/kHu/j/vvo+y22Al/ZkpvyHpNb2yzcs2r9PgXOq55zdoQE6Ee4AT+HgenZzb9dsLfft3bJWvsGGQD7qNLTq/HFLh5WPFqJbo6mk29ygk24sxKzknTmzmsVPWqQ7pqw1X/1yVr0HQL7nM97gxs09uQU5iZbbAbngPa4HSa1S5Yi1bvqO+55hiuKtWu+axjmlXQFfcIYZk1+MpV02w1uib2fuwedztN173uwDVrTqcB7z0q4+/HR3XmuLX6UbNldnvQxtDsNlqu2bCZ6hxVPbcJZmt21PLMLsgTyBFcNbuk4tesOa0u11DCsFt/MJ5uwGn1bcZabglZa1lTFVUW1ICVGi3If467TRAUu2WVfVevtiygqmfi6WMLeszqDesY2zFLQZtL1hRnCjeWiH9WsUbM6Tc8vLHRclRmNfCOOsi56rjuGD6532hAU0OrAt/FsoaokeYJC7OmVswysNYalcvlUs+CZjYibCUw2Cqo6BhegUG0b21uw5tI59AjLmYuiQsEYlMQTcYalo3HJ9inukuktOkCb3Mpa2oVHofTajkKs/ugrE4fWIRP8jo2c5pkFkZWDc67HYc+BmVHRWbbJl11LHSTwBo3F6pag4fjRx6u2yj/0/TcghrZ6xE8fJQXFARW6lIgUkHWuIV2KgFrs6MZWDibKw5oNvysm9zQdaNYoxvHQB1r43WHRA2eSCdoWxkSa2ACoN12l5rqew6wg5+osqk5CrHGfNY6dUS101h+5oMCDE+tPh7XOqh3wBrKe4n3n1hjSrlXr3Qsiz/VNqer1OUe34b+sXqXHPBxlKw54KDxGETIw+acxpS6T6wxuz2reRZnrYZpWLtLko2seSbSq/Jncs2agiyiN+Cf3wg5/wcEmCaUdniphli7ljVn2oUIs13jslaySJGAoRO62+kQazbGEpGyZvfBG0C7HZAPPOc0uJASazPwBF693QhkDczltax5Jv6mggUdhllzOqZy7Q3AlZ38Y9R8BRW35yBKVt+JkjWII+EV7B4Kgd3n5gzeQaYMnnVTYeMunYyUtaFJLI3dMickzNqx6eGjGDV8WWM3ZG1KWZ7KUCNDrMFNLMTa0NxEmOuYDR5mqVOwb+usOX0eRtZR1pxnFnUKYrfuMzp97EKP6z5rEbJm+3eUu70OSWmYtTGnqGxFsQZShKGayjr4oJasOS00w8gaP66amzBsbbfme+4exKNRrKGXYOUO2DVlai2/YtVEJVYp2ohkDeXXPn7G3Svw3bBmGLqEWfO9SDWatXKX/EaP+CpDQksNtlx8HmDXVDruuY1NJKJNM8h4bNd0wEwRa0dk16YNGyJUt1Iqz/ota+aU3EZz2pxOm1UHVNOqDdstcwxdGh/Z+PbjoxBr/WeAvmkFRYmZ5VLA51jXrJXMZ+1y2+s0vLLidLldO+J2DaO5sen1hjWrgea+7DZardazvuvWHJCyER22Wn3XikrY/mk4XtPxZU2pecdKhb57yaM8ZjwF1pxKo9vttEf9bq3sTZuEKkZQTatr9mfUVc9mdNeyB/47K3U/nMJAv0XhqNPkwlerQBsnHbNrVZ0KWAnHo6YoOlTYtArfSp3hZTJ9bOTRB0/HJRr9svn3gOONeNC/g1Gp7OCrHT6p0Hk7+o6boBrlsBtVi7LL2IRTKken4Ha5tKkoduNA0tRK15YzFb4NTqlnTjf9Jf51KB9hXUPi2+D02vamv4OEhISEhISEhISEhISEhISEhITEveF/7x4IRDaT5WAAAAAASUVORK5CYII=;" vertex="1" parent="1">
          <mxGeometry x="610" y="404.46" width="143.21" height="75.54" as="geometry" />
        </mxCell>
        <mxCell id="mljChudHksafsY_qVqmY-23" value="" style="shape=flexArrow;endArrow=classic;html=1;rounded=0;" edge="1" parent="1">
          <mxGeometry width="50" height="50" relative="1" as="geometry">
            <mxPoint x="520" y="440" as="sourcePoint" />
            <mxPoint x="600" y="440" as="targetPoint" />
          </mxGeometry>
        </mxCell>
        <mxCell id="mljChudHksafsY_qVqmY-24" value="&lt;b&gt;&lt;font style=&quot;font-size: 17px;&quot;&gt;System Diagram for Terraform Workflow&lt;/font&gt;&lt;/b&gt;" style="text;html=1;align=center;verticalAlign=middle;resizable=0;points=[];autosize=1;strokeColor=none;fillColor=none;perimeterSpacing=3;" vertex="1" parent="1">
          <mxGeometry x="305" y="570" width="350" height="30" as="geometry" />
        </mxCell>
      </root>
    </mxGraphModel>
  </diagram>
</mxfile>
